<?xml version="1.0" standalone="no"?>
<!DOCTYPE svg PUBLIC "-//W3C//DTD SVG 20010904//EN"
 "http://www.w3.org/TR/2001/REC-SVG-20010904/DTD/svg10.dtd">
<svg version="1.0" xmlns="http://www.w3.org/2000/svg"
 width="1177.000000pt" height="1280.000000pt" viewBox="0 0 1177.000000 1280.000000"
 preserveAspectRatio="xMidYMid meet">
<g transform="translate(0.000000,1280.000000) scale(0.100000,-0.100000)"
fill="#000000" stroke="none">
<path d="M6384 12647 c-18 -51 -82 -236 -144 -412 -61 -176 -118 -349 -126
-385 -9 -36 -21 -68 -27 -72 -6 -4 -30 -4 -52 -1 l-41 5 -12 -53 c-20 -93 -32
-194 -26 -230 8 -46 -10 -62 -56 -49 -19 5 -37 6 -41 2 -24 -24 -62 -261 -57
-355 4 -74 -7 -80 -82 -48 -27 12 -51 21 -54 21 -26 0 -37 -247 -15 -334 17
-69 4 -80 -68 -55 -91 31 -87 36 -80 -98 3 -65 13 -143 22 -173 8 -30 18 -70
22 -89 l6 -34 -78 6 -78 7 6 -138 c4 -99 11 -156 27 -207 12 -38 22 -79 23
-90 2 -22 0 -22 -102 -10 l-63 8 4 -99 c4 -78 11 -118 37 -192 42 -117 38
-125 -60 -116 l-69 7 0 -34 c0 -52 47 -226 80 -295 44 -91 43 -94 -40 -94 -67
0 -70 -1 -70 -24 0 -41 48 -211 85 -301 44 -106 40 -117 -44 -113 l-56 3 1
-46 c2 -53 60 -231 103 -317 34 -68 29 -82 -28 -82 -46 0 -81 -10 -81 -22 0
-23 79 -216 141 -347 38 -80 66 -148 62 -152 -5 -4 -33 -13 -63 -21 -50 -12
-55 -16 -52 -38 4 -37 122 -274 176 -354 26 -39 44 -76 42 -83 -3 -7 -23 -16
-45 -19 -50 -8 -65 -24 -56 -62 9 -42 95 -189 177 -305 81 -114 82 -132 10
-124 -26 3 -59 8 -73 12 -20 5 -37 0 -68 -21 -62 -40 -66 -32 -80 181 -12 179
-23 260 -35 272 -4 4 -31 -5 -62 -20 -39 -19 -56 -24 -58 -15 -2 7 -9 99 -15
203 -10 180 -21 258 -40 269 -5 3 -37 -13 -71 -35 -34 -22 -69 -38 -76 -35
-11 4 -14 29 -14 98 0 81 -17 233 -36 321 -7 35 -28 35 -84 -3 -78 -52 -90
-40 -90 86 0 110 -37 305 -60 319 -5 3 -36 -6 -69 -20 -95 -39 -94 -40 -105
75 -8 81 -95 320 -117 320 -5 0 -36 -18 -71 -40 -34 -23 -69 -39 -78 -38 -11
2 -17 21 -22 68 -10 99 -83 302 -113 314 -7 2 -36 -7 -64 -20 -28 -14 -56 -24
-62 -22 -6 2 -22 45 -34 94 -25 97 -89 256 -110 274 -10 8 -26 4 -64 -17 -65
-36 -81 -27 -98 55 -13 65 -60 185 -93 240 -25 40 -45 40 -98 1 -59 -43 -71
-37 -92 47 -21 80 -97 251 -136 301 -31 40 -48 41 -98 3 -58 -44 -71 -40 -85
26 -16 68 -91 221 -125 253 l-25 23 -35 -27 c-19 -15 -42 -25 -51 -23 -10 2
-29 34 -46 78 -37 91 -96 190 -113 190 -8 0 -19 -7 -26 -15 -22 -26 -48 -18
-60 19 -6 19 -44 86 -84 148 -40 63 -99 161 -131 219 -32 57 -68 118 -80 134
-12 17 -28 48 -35 70 -26 79 -156 333 -165 323 -10 -10 97 -529 137 -666 18
-62 19 -76 8 -97 -11 -21 -9 -35 19 -112 26 -72 30 -94 22 -116 -13 -33 3 -91
48 -173 17 -32 31 -63 31 -70 0 -16 -31 -34 -59 -34 -12 0 -21 -4 -21 -9 0
-19 68 -158 108 -222 23 -36 42 -71 42 -77 0 -18 -30 -42 -54 -42 -13 0 -29
-6 -35 -14 -15 -18 32 -109 116 -221 41 -53 62 -90 56 -96 -5 -5 -29 -15 -54
-22 -32 -9 -45 -18 -47 -34 -4 -26 104 -205 166 -273 23 -26 42 -52 42 -58 0
-6 -25 -24 -55 -41 -30 -17 -55 -37 -55 -45 0 -20 81 -128 162 -215 87 -96 88
-114 6 -140 -74 -24 -47 -77 130 -250 l127 -123 -48 -42 c-26 -22 -47 -46 -47
-52 0 -12 176 -185 258 -253 28 -24 52 -50 52 -57 0 -8 -25 -28 -55 -45 -39
-22 -55 -37 -55 -51 0 -26 178 -200 254 -248 30 -19 55 -40 56 -47 0 -6 -18
-27 -41 -45 l-41 -35 80 -73 c45 -40 114 -97 154 -127 121 -89 138 -103 138
-114 0 -5 -18 -22 -40 -37 -56 -39 -58 -51 -11 -93 53 -47 200 -145 274 -182
66 -33 71 -50 27 -92 l-29 -28 34 -38 c44 -49 52 -81 31 -114 -22 -34 -31 -27
-109 75 -71 94 -170 190 -195 190 -9 0 -29 -21 -44 -45 -15 -25 -33 -45 -40
-45 -8 0 -32 28 -55 63 -52 79 -186 210 -210 205 -10 -2 -28 -22 -41 -46 -30
-54 -52 -54 -94 -1 -39 49 -228 219 -244 219 -6 0 -25 -20 -43 -45 -18 -25
-36 -45 -42 -45 -11 0 -27 16 -92 94 -41 47 -114 109 -164 139 -7 5 -25 -15
-48 -53 -20 -33 -39 -60 -42 -60 -3 0 -38 33 -77 73 -63 65 -199 167 -222 167
-5 0 -25 -23 -44 -51 -18 -28 -37 -52 -41 -55 -4 -2 -40 28 -79 67 -79 78
-203 164 -225 155 -8 -3 -26 -28 -40 -56 -14 -28 -33 -54 -41 -57 -10 -4 -33
11 -62 39 -26 25 -76 62 -111 82 -65 38 -172 86 -191 86 -5 0 -17 -18 -26 -39
-21 -54 -39 -58 -91 -21 -50 36 -169 92 -242 114 -49 14 -52 14 -71 -7 -19
-19 -23 -20 -53 -8 -108 44 -485 161 -666 206 -167 42 -164 31 19 -79 214
-128 562 -360 612 -406 28 -27 38 -45 38 -68 0 -34 26 -56 182 -153 49 -30 88
-58 88 -63 0 -5 -9 -23 -20 -41 l-20 -33 36 -30 c19 -16 81 -53 137 -82 137
-71 140 -74 121 -113 -23 -43 -6 -70 64 -106 60 -31 72 -44 72 -86 0 -28 34
-51 168 -111 54 -24 98 -47 99 -51 2 -5 -17 -33 -42 -63 -25 -30 -45 -61 -45
-68 0 -16 84 -53 238 -104 77 -26 122 -46 122 -55 0 -7 -12 -31 -26 -53 -15
-22 -24 -46 -20 -55 9 -24 115 -69 251 -106 66 -18 126 -37 132 -43 10 -9 7
-22 -13 -60 -14 -26 -23 -54 -20 -61 8 -21 128 -53 259 -69 66 -8 124 -19 130
-25 9 -9 6 -21 -11 -51 -12 -21 -22 -44 -22 -49 0 -28 96 -54 265 -71 60 -6
115 -16 121 -21 9 -7 9 -17 1 -39 -8 -21 -8 -33 -1 -40 18 -18 167 -39 324
-47 l145 -8 0 -41 c0 -23 6 -48 14 -57 23 -29 139 -57 276 -68 71 -6 135 -15
142 -21 6 -5 13 -19 15 -31 7 -52 116 -93 288 -107 147 -13 187 -24 226 -66
36 -40 79 -51 316 -83 101 -13 158 -25 180 -39 46 -27 106 -45 313 -93 192
-44 254 -64 239 -78 -5 -4 -67 -2 -139 5 -71 7 -149 13 -173 13 -39 1 -43 -1
-37 -19 10 -31 -17 -35 -103 -16 -42 9 -128 20 -191 23 l-114 6 6 -22 c8 -31
-13 -36 -65 -17 -48 18 -225 46 -289 46 l-41 0 6 -35 c9 -47 -7 -52 -86 -27
-65 21 -169 40 -248 44 l-45 3 -3 -48 c-4 -56 -12 -58 -110 -27 -80 25 -190
43 -219 35 -20 -5 -23 -12 -23 -51 0 -57 -12 -62 -92 -34 -75 26 -243 39 -276
21 -18 -10 -22 -21 -22 -60 0 -68 -12 -75 -96 -55 -38 9 -113 17 -167 18 -114
1 -131 -9 -121 -74 8 -50 -11 -65 -63 -51 -54 16 -203 24 -238 13 -29 -8 -30
-11 -30 -63 l0 -54 -138 -8 c-167 -10 -187 -16 -187 -57 0 -37 -27 -55 -95
-65 -94 -13 -560 -178 -699 -247 -21 -11 -34 -23 -30 -28 5 -4 191 -12 414
-17 385 -8 407 -10 443 -30 32 -17 63 -22 178 -28 142 -8 169 -16 169 -50 0
-8 11 -22 25 -31 21 -14 46 -16 142 -13 l118 4 17 -37 c10 -20 28 -40 40 -44
54 -18 220 -3 372 33 75 17 86 13 86 -38 0 -14 6 -33 13 -43 21 -28 104 -17
212 28 129 55 160 63 179 47 9 -8 16 -22 16 -33 0 -69 54 -75 197 -22 149 54
169 59 211 45 36 -11 42 -9 207 73 94 46 187 87 207 90 20 2 96 34 168 71 72
36 159 73 193 81 34 9 84 31 112 50 54 36 73 33 53 -11 -11 -25 -10 -29 15
-47 33 -24 33 -22 -66 -147 -42 -52 -78 -103 -80 -113 -3 -10 3 -29 14 -42 10
-13 19 -30 19 -36 0 -7 -25 -42 -56 -78 -76 -89 -154 -206 -154 -231 0 -11 9
-25 21 -32 30 -15 21 -47 -46 -168 -31 -56 -63 -120 -71 -143 -14 -40 -13 -44
7 -71 17 -23 20 -38 16 -80 -21 -203 -28 -405 -19 -526 5 -73 14 -137 19 -142
6 -6 31 36 67 113 74 159 158 307 204 361 20 23 55 74 77 111 57 98 155 198
239 244 69 36 71 39 127 142 95 173 126 219 156 232 15 7 35 17 43 24 8 7 26
14 39 16 31 4 43 38 81 226 36 173 41 186 81 177 25 -6 30 -3 39 21 6 15 15
62 21 103 16 131 43 122 53 -18 24 -321 62 -1755 76 -2801 6 -432 13 -809 16
-838 4 -36 12 -59 27 -72 28 -26 36 -25 79 11 59 48 61 65 43 436 -8 181 -28
702 -45 1158 -64 1808 -63 2111 13 2082 8 -3 22 -36 31 -74 20 -80 39 -113 65
-113 48 0 109 -94 166 -255 9 -27 22 -62 27 -77 13 -35 34 -35 78 -3 18 13 37
22 42 19 5 -3 37 -63 72 -132 85 -169 113 -205 181 -237 60 -29 104 -78 337
-380 64 -82 125 -159 137 -169 l21 -19 0 48 c0 27 -18 126 -40 221 -22 95 -40
195 -40 221 0 42 -30 142 -71 241 -12 30 -12 33 9 48 12 8 22 22 22 29 0 19
-95 201 -126 242 -31 40 -30 61 1 73 14 5 25 18 25 27 0 29 -65 131 -145 228
-41 50 -75 96 -75 102 0 7 11 20 25 29 14 9 25 20 25 25 0 5 -36 49 -80 98
-120 133 -106 159 36 66 97 -63 142 -87 199 -105 22 -7 105 -45 185 -83 141
-69 148 -71 240 -77 68 -5 109 -13 145 -29 87 -40 157 -61 202 -61 40 0 45 3
54 29 6 16 17 32 25 35 8 3 71 -17 139 -45 70 -28 143 -51 167 -52 40 -2 43 0
60 36 10 21 25 40 34 44 8 3 63 -8 122 -25 194 -56 257 -55 285 3 19 40 19 40
112 20 39 -8 109 -15 156 -15 75 0 89 3 118 24 45 34 77 36 629 45 315 5 476
11 483 18 16 16 -13 29 -256 116 -229 82 -532 202 -553 219 -7 6 -12 18 -11
27 3 31 -1 39 -28 50 -52 20 -158 41 -215 41 -82 0 -88 4 -88 60 0 28 -5 52
-12 57 -7 4 -69 10 -138 13 l-125 5 -3 45 c-2 25 -8 50 -13 55 -6 6 -83 12
-172 15 l-162 5 3 41 c2 27 -2 45 -12 53 -27 22 -135 25 -227 6 -130 -27 -124
-29 -127 37 -3 53 -5 58 -30 65 -49 14 -175 6 -242 -16 -36 -11 -68 -21 -72
-21 -5 0 -8 23 -8 51 l0 52 -68 -6 c-37 -4 -104 -16 -147 -28 -134 -36 -125
-36 -125 1 l0 33 -57 -7 c-31 -4 -88 -18 -127 -32 -106 -37 -117 -39 -128 -20
-11 19 -69 21 -137 5 -30 -6 -48 -6 -54 0 -16 16 33 31 212 62 203 35 201 35
201 64 0 30 31 41 160 55 202 23 294 46 326 81 34 37 71 49 206 64 144 16 216
31 235 47 7 6 13 22 13 37 0 38 17 51 66 51 115 0 300 42 346 79 21 18 22 21
9 53 -28 68 -27 69 91 89 124 21 297 76 305 96 3 8 -3 32 -12 54 -25 53 -19
58 135 104 141 41 249 82 268 99 10 10 7 20 -18 51 -38 48 -31 56 65 79 104
25 249 88 253 109 2 9 -13 40 -34 68 -28 39 -35 55 -27 67 5 9 57 34 114 57
103 41 207 93 242 123 26 22 21 42 -20 84 -31 31 -36 42 -27 56 6 9 62 46 125
82 63 36 136 81 164 100 27 19 53 38 59 42 5 3 -5 23 -22 44 -18 21 -32 45
-32 52 0 7 24 24 53 36 56 26 237 154 237 169 0 5 -9 22 -21 38 -11 16 -19 36
-16 43 3 8 42 36 88 62 45 27 100 65 122 85 40 35 41 36 27 68 -8 20 -9 36 -4
41 39 39 238 169 319 209 105 51 336 138 446 167 144 39 96 61 -110 51 -171
-8 -544 -69 -627 -103 -60 -24 -67 -25 -83 -10 -10 9 -30 16 -45 16 -46 0
-180 -58 -254 -110 -39 -28 -75 -50 -80 -50 -5 0 -22 16 -36 35 -24 31 -29 33
-53 24 -46 -17 -161 -98 -205 -145 -24 -24 -48 -44 -55 -44 -7 0 -20 25 -30
56 -17 54 -18 55 -47 50 -44 -9 -161 -86 -239 -156 -40 -37 -73 -60 -82 -56
-8 3 -26 28 -40 56 -14 27 -28 50 -31 50 -35 0 -236 -174 -271 -235 -16 -30
-44 -9 -66 51 -26 69 -31 71 -75 40 -36 -25 -164 -152 -204 -204 -22 -27 -37
-22 -66 23 -12 19 -28 35 -35 35 -19 0 -183 -176 -233 -252 -25 -37 -50 -66
-55 -62 -5 3 -20 27 -34 54 -14 27 -30 52 -36 56 -20 12 -134 -110 -278 -296
-16 -21 -21 -23 -35 -11 -9 7 -16 22 -16 31 0 10 -18 34 -40 53 -22 19 -40 38
-40 43 0 5 35 28 78 52 96 54 252 164 272 193 13 20 12 23 -10 40 -53 39 -62
50 -51 63 6 7 39 30 74 51 133 81 297 213 297 239 0 7 -20 26 -45 44 -25 17
-45 38 -45 47 0 8 17 26 38 39 45 29 208 175 230 207 15 21 14 24 -18 51 -19
15 -38 28 -42 28 -4 0 -8 11 -8 24 0 15 14 36 38 56 79 68 242 232 242 244 0
13 -43 34 -105 52 -56 17 -46 44 62 157 108 113 178 208 170 230 -3 7 -32 21
-66 30 -72 20 -78 37 -30 83 64 60 179 248 162 265 -5 5 -29 15 -54 22 -25 7
-45 20 -47 29 -2 9 32 63 74 120 79 105 141 219 129 238 -3 5 -18 10 -33 10
-30 0 -72 25 -72 43 0 6 13 25 29 42 38 39 171 235 171 251 0 7 -19 16 -45 20
-79 11 -78 27 9 168 77 123 93 186 47 186 -11 0 -27 7 -36 16 -14 15 -14 19 5
48 33 49 110 204 110 220 0 8 -9 17 -19 21 -29 9 -33 32 -11 74 10 22 37 86
59 143 50 134 117 268 192 383 57 88 97 175 80 175 -35 0 -308 -269 -397 -391
-19 -26 -45 -50 -58 -53 -27 -7 -135 -134 -166 -196 -26 -50 -35 -55 -67 -34
-26 17 -27 16 -50 -12 -13 -16 -42 -67 -64 -114 -54 -113 -54 -113 -67 -118
-6 -2 -23 9 -37 24 -21 22 -30 26 -43 18 -24 -15 -79 -118 -98 -184 -9 -30
-20 -59 -25 -64 -5 -6 -24 -2 -48 9 -22 9 -47 15 -55 12 -21 -8 -113 -200
-127 -264 -6 -29 -15 -56 -20 -59 -6 -3 -33 10 -62 30 -29 20 -57 36 -64 36
-30 0 -109 -170 -119 -257 -12 -107 -18 -112 -89 -63 -24 17 -50 30 -58 30
-36 0 -127 -229 -133 -333 -2 -37 -6 -72 -9 -77 -10 -16 -33 -11 -75 15 -53
34 -66 32 -89 -13 -26 -52 -61 -190 -61 -244 0 -72 -9 -76 -79 -39 -34 18 -65
30 -70 27 -30 -19 -111 -273 -111 -348 0 -24 -6 -53 -14 -64 -15 -19 -16 -18
-64 9 -28 15 -57 27 -66 27 -23 0 -54 -114 -65 -239 -5 -57 -14 -108 -20 -114
-6 -6 -27 1 -60 22 l-51 31 -18 -38 c-29 -58 -62 -242 -62 -352 0 -97 -8 -102
-75 -55 -84 57 -92 48 -120 -135 -8 -52 -15 -139 -15 -193 0 -113 -7 -122 -68
-83 -62 39 -72 37 -88 -14 -8 -25 -19 -126 -25 -225 -7 -99 -15 -184 -19 -188
-9 -10 -61 15 -80 38 -11 14 -10 26 9 80 28 80 24 95 -27 95 -21 0 -46 6 -56
13 -18 13 -16 18 26 88 53 87 120 218 148 289 19 49 19 50 0 60 -10 5 -29 10
-42 10 -13 0 -32 6 -42 13 -16 11 -13 20 34 108 53 102 132 284 149 344 12 43
-4 55 -73 55 -25 0 -48 5 -51 10 -4 6 11 41 33 78 76 128 161 340 141 353 -7
4 -35 5 -64 2 -40 -4 -55 -2 -68 11 -16 16 -14 23 32 109 28 51 66 139 85 197
l35 105 -68 3 c-82 3 -90 14 -53 68 36 53 92 219 92 272 l0 43 -62 -1 c-85 -2
-88 -2 -88 11 0 6 16 38 36 70 44 74 94 208 94 256 l0 36 -52 -7 c-29 -3 -70
-9 -90 -12 -33 -6 -38 -4 -38 13 0 11 13 50 30 86 42 93 80 247 80 324 0 57
-2 64 -17 59 -35 -10 -132 -18 -142 -12 -6 4 1 33 20 77 54 128 84 278 59 294
-6 4 -43 1 -81 -5 -91 -16 -96 -11 -75 74 19 75 40 335 30 379 l-6 29 -66 -7
-65 -7 7 44 c4 23 11 66 16 93 11 64 13 242 2 249 -5 3 -31 -3 -59 -14 -68
-26 -78 -17 -59 51 9 31 17 103 18 169 l3 115 -31 -2 c-45 -4 -55 13 -43 67
17 75 17 244 -1 265 -22 27 -18 270 10 535 31 302 17 393 -36 237z m320 -6033
c10 -25 7 -110 -4 -140 -10 -25 -14 -26 -56 -21 -60 6 -83 27 -65 60 20 38 92
117 106 117 7 0 16 -7 19 -16z m-1086 -236 c126 -170 148 -218 100 -218 -67
-1 -59 -41 39 -186 94 -139 133 -217 133 -265 0 -22 11 -61 25 -88 49 -98 117
-372 150 -605 19 -136 30 -323 21 -369 -13 -67 -33 -46 -110 116 -141 293
-185 426 -236 707 -12 69 -24 135 -26 147 -4 20 -7 21 -28 11 -50 -22 -51 -17
-64 243 -7 134 -15 254 -18 266 -5 18 -12 21 -47 20 l-42 -2 -7 50 c-6 47 -1
225 7 253 10 29 39 6 103 -80z m1076 5 c26 -91 13 -123 -42 -96 -38 18 -40 32
-9 78 24 38 43 45 51 18z m-2487 -94 c24 -15 33 -27 31 -42 -4 -28 -33 -45
-55 -31 -20 12 -37 59 -29 79 7 20 12 19 53 -6z m3770 5 c10 -26 -14 -64 -40
-64 -28 0 -59 30 -49 47 8 13 48 31 70 32 7 1 15 -6 19 -15z m-1387 -163 c6
-11 10 -89 10 -182 l0 -162 -39 6 -40 5 -5 -62 c-3 -33 -10 -126 -16 -205 -12
-152 -17 -172 -110 -452 -66 -197 -187 -459 -212 -459 -15 0 -4 128 22 260 24
122 106 490 119 537 5 17 7 49 4 70 -6 46 50 222 103 323 32 62 64 142 64 161
0 5 -6 9 -14 9 -7 0 -19 7 -26 15 -17 21 -3 52 51 110 45 48 72 56 89 26z
m-2013 -207 c7 -20 -17 -37 -34 -23 -15 13 -6 39 13 39 8 0 17 -7 21 -16z
m353 -329 c0 -14 -4 -25 -9 -25 -12 0 -19 21 -13 38 8 21 22 13 22 -13z m303
-242 c137 -70 425 -331 603 -543 85 -103 135 -200 103 -200 -16 0 -179 132
-287 233 -130 122 -230 231 -312 341 -39 53 -75 96 -80 96 -5 0 -13 -7 -18
-16 -16 -28 -44 -12 -60 34 -14 44 -11 72 8 72 6 0 25 -7 43 -17z m1573 -227
c14 -36 -88 -152 -301 -342 -201 -180 -237 -199 -157 -81 75 112 269 315 371
390 68 51 79 55 87 33z m95 -519 c-5 -5 -18 -7 -28 -3 -14 6 -15 9 -4 16 19
11 46 1 32 -13z"/>
</g>
</svg>
