<?xml version="1.0" standalone="no"?>
<!DOCTYPE svg PUBLIC "-//W3C//DTD SVG 20010904//EN"
 "http://www.w3.org/TR/2001/REC-SVG-20010904/DTD/svg10.dtd">
<svg version="1.0" xmlns="http://www.w3.org/2000/svg"
 width="640.000000pt" height="1280.000000pt" viewBox="0 0 640.000000 1280.000000"
 preserveAspectRatio="xMidYMid meet">
<metadata>
Created by potrace 1.15, written by Peter Selinger 2001-2017
</metadata>
<g transform="translate(0.000000,1280.000000) scale(0.100000,-0.100000)"
fill="#d9ffc8" stroke="none">
<path d="M2730 12778 c0 -54 43 -313 71 -428 58 -234 116 -347 243 -468 133
-126 239 -175 462 -211 108 -18 158 -31 216 -55 15 -7 15 -2 -2 61 -9 37 -20
122 -24 188 -12 217 -51 388 -106 463 -53 73 -177 139 -443 236 -160 58 -180
68 -297 153 -127 92 -120 88 -120 61z"/>
<path d="M4689 12462 c-143 -108 -191 -134 -352 -193 -183 -66 -344 -143 -400
-189 -43 -37 -80 -104 -103 -187 -22 -83 -44 -255 -44 -346 0 -46 -8 -106 -20
-149 -11 -39 -19 -73 -17 -74 1 -1 27 6 58 16 30 10 113 29 184 40 224 38 319
84 460 225 128 128 182 239 240 495 28 126 71 410 61 410 -2 0 -32 -22 -67
-48z"/>
<path d="M2520 11992 c0 -56 31 -270 61 -417 36 -177 86 -331 140 -436 104
-199 333 -386 544 -442 33 -9 118 -25 189 -37 70 -11 160 -31 200 -44 39 -13
72 -23 73 -22 1 1 -6 35 -17 76 -10 41 -21 127 -25 190 -21 369 -77 564 -188
651 -66 54 -252 143 -432 208 -223 82 -253 97 -385 191 -170 122 -160 116
-160 82z"/>
<path d="M4845 11699 c-166 -121 -189 -134 -350 -193 -449 -163 -558 -230
-618 -385 -41 -103 -71 -284 -83 -501 -3 -63 -14 -149 -25 -190 -10 -41 -16
-76 -14 -78 2 -2 12 1 22 6 31 17 170 49 287 67 199 30 327 84 459 193 185
151 279 316 353 617 39 161 95 527 82 540 -2 3 -53 -32 -113 -76z"/>
<path d="M2305 10943 c31 -312 103 -635 184 -822 47 -110 100 -188 192 -280
172 -173 318 -247 559 -286 150 -23 248 -44 304 -66 28 -10 51 -17 52 -16 2 2
-6 36 -16 77 -12 44 -24 141 -30 235 -12 185 -32 329 -61 435 -63 232 -152
294 -714 501 -145 53 -198 84 -383 221 l-94 69 7 -68z"/>
<path d="M4845 10574 c-164 -127 -256 -180 -400 -233 -352 -129 -477 -187
-577 -265 -44 -35 -64 -61 -93 -119 -56 -113 -105 -387 -105 -589 0 -55 -9
-115 -25 -178 -13 -52 -23 -95 -21 -97 1 -1 24 6 52 16 56 22 154 43 304 66
180 29 303 77 426 168 80 59 196 177 247 252 97 141 173 377 227 703 21 123
44 322 38 326 -1 2 -34 -21 -73 -50z"/>
<path d="M2042 9843 c58 -500 163 -872 305 -1086 65 -98 230 -261 333 -329
157 -104 290 -149 547 -189 156 -23 265 -50 322 -77 23 -11 41 -16 41 -10 0 5
-11 53 -24 106 -17 68 -27 153 -35 282 -11 187 -38 389 -65 490 -41 156 -89
239 -181 313 -70 56 -293 168 -450 226 -443 162 -432 157 -676 337 -70 52
-129 94 -131 94 -3 0 4 -71 14 -157z"/>
<path d="M5074 9608 c-149 -110 -273 -193 -320 -213 -21 -9 -101 -39 -176 -66
-433 -153 -661 -272 -738 -385 -87 -125 -138 -356 -161 -722 -8 -130 -19 -217
-35 -284 -13 -53 -24 -99 -24 -102 0 -3 21 4 46 14 66 29 182 56 314 75 241
34 388 83 535 179 100 65 242 199 319 300 132 173 235 471 300 871 23 142 56
406 51 412 -1 2 -51 -34 -111 -79z"/>
<path d="M1685 8533 c78 -698 199 -1125 390 -1372 99 -128 246 -263 376 -344
150 -93 294 -139 568 -182 183 -28 259 -46 343 -80 32 -13 58 -21 58 -19 0 3
-13 58 -29 122 -22 90 -30 152 -35 265 -16 373 -75 668 -163 816 -79 133 -280
252 -668 394 -445 164 -427 154 -713 366 -67 50 -125 91 -128 91 -3 0 -3 -26
1 -57z"/>
<path d="M5100 8023 c-117 -89 -317 -226 -365 -250 -22 -11 -130 -53 -240 -93
-449 -162 -679 -277 -777 -389 -46 -52 -102 -181 -132 -301 -40 -162 -76 -464
-76 -637 0 -59 -8 -114 -30 -196 -16 -63 -30 -119 -30 -125 0 -6 23 -1 53 12
70 32 194 61 359 86 303 45 470 107 651 244 89 67 260 242 315 323 134 198
235 511 306 948 25 155 59 435 54 440 -2 1 -41 -27 -88 -62z"/>
<path d="M1313 7224 c3 -16 9 -63 12 -104 10 -120 43 -351 76 -530 74 -411
180 -738 307 -954 116 -195 364 -433 579 -557 166 -95 324 -142 628 -189 213
-33 352 -66 438 -103 31 -14 57 -24 57 -21 0 3 -15 67 -34 142 -27 110 -35
166 -41 282 -22 494 -96 870 -205 1040 -63 98 -175 182 -375 283 -162 82 -287
131 -733 292 -161 58 -245 106 -442 250 -83 61 -178 130 -212 154 l-60 45 5
-30z"/>
<path d="M5430 6748 c-145 -110 -344 -249 -410 -286 -30 -16 -170 -71 -310
-122 -549 -198 -791 -317 -926 -458 -134 -140 -219 -454 -254 -937 -5 -77 -10
-177 -10 -222 0 -63 -9 -117 -39 -233 -22 -82 -38 -150 -36 -150 1 0 29 12 61
26 90 40 222 71 439 105 369 57 519 111 753 271 90 62 319 285 386 377 169
232 303 629 390 1156 35 213 75 556 65 554 -2 0 -51 -36 -109 -81z"/>
<path d="M940 5467 c0 -51 42 -388 70 -554 76 -461 167 -785 297 -1051 66
-137 139 -236 275 -378 205 -213 397 -344 623 -424 124 -43 217 -64 445 -100
231 -36 381 -71 469 -111 35 -16 66 -28 67 -26 2 2 -15 72 -36 157 -29 113
-40 175 -40 230 0 96 -16 317 -35 488 -32 278 -98 539 -170 666 -115 204 -384
354 -1087 605 -124 45 -246 90 -271 100 -55 24 -256 159 -454 307 -131 98
-153 111 -153 91z"/>
<path d="M5256 4675 c-343 -250 -324 -240 -781 -405 -547 -197 -841 -360 -946
-523 -122 -189 -204 -590 -224 -1107 -6 -140 -12 -186 -42 -305 -18 -77 -36
-148 -39 -158 -6 -18 -4 -18 27 -1 97 50 261 91 514 128 294 43 408 76 600
171 72 36 171 95 220 132 105 79 330 301 395 391 203 281 350 751 444 1415 27
189 50 406 45 411 -2 2 -98 -65 -213 -149z"/>
<path d="M470 3705 c0 -101 59 -553 105 -802 92 -502 220 -914 370 -1188 135
-249 449 -570 718 -734 243 -148 458 -218 847 -276 198 -29 303 -48 407 -76
87 -23 199 -64 231 -85 13 -9 25 -14 27 -12 1 2 -19 86 -45 188 -45 177 -47
193 -54 370 -10 279 -38 556 -76 765 -44 240 -85 374 -158 520 -126 253 -445
436 -1277 734 -453 162 -448 159 -937 522 l-158 117 0 -43z"/>
<path d="M5735 3066 c-440 -325 -484 -350 -820 -469 -616 -219 -869 -330
-1092 -479 -144 -97 -210 -166 -271 -285 -58 -115 -83 -185 -122 -343 -57
-236 -92 -523 -111 -910 -11 -217 -13 -232 -56 -399 -24 -95 -42 -175 -39
-178 2 -3 44 11 93 30 139 56 285 89 583 132 536 78 839 221 1189 560 195 189
321 357 411 548 193 412 337 1025 415 1776 8 79 15 145 15 147 0 12 -31 -9
-195 -130z"/>
</g>
</svg>
